#!OML:ASF Y:\EmotionMaleHayes\Project 1\Capture day 1\Session 1\Male1.ASF
:FULLY-SPECIFIED
:DEGREES
297
root -29.8379 16.8833 2.02228 10.4001 84.7688 10.6224
lowerback 5.04614 1.38307 -5.74525
upperback 1.97809 1.60435 -0.926854
thorax -0.915908 0.806837 2.17122
lowerneck -20.8898 -0.185262 1.59033
upperneck 25.0492 -1.03145 1.56717
head 11.6638 -0.00832216 0.168419
rclavicle 5.46658e-015 -9.14409e-015
rhumerus -37.0261 1.91892 -87.8601
rradius 29.3612
rwrist 8.57464
rhand -8.1793 -29.5446
rfingers 7.12502
rthumb 17.7363 -58.7557
lclavicle 5.46658e-015 -9.14409e-015
lhumerus -29.5306 -7.88238 85.4976
lradius 25.5174
lwrist -13.3315
lhand -14.3399 -27.3903
lfingers 7.12502
lthumb 11.8013 2.25715
rfemur 4.97046 -2.7023 19.5463
rtibia 11.4602
rfoot -21.6021 1.61877
rtoes 19.1182
lfemur 6.21518 2.84149 -10.8718
ltibia 12.6433
lfoot -18.2842 8.72662
ltoes -21.9378
298
root -29.8249 16.8692 2.07904 6.44506 84.7749 6.73486
lowerback 5.24215 1.31991 -5.33054
upperback 2.06382 1.53131 -0.758247
thorax -0.925961 0.769575 2.11475
lowerneck -20.8238 -0.242686 1.56348
upperneck 24.972 -1.11297 1.60305
head 11.6218 -0.0449041 0.172794
rclavicle 1.29707e-014 -5.96354e-015
rhumerus -36.8582 1.86388 -87.6958
rradius 29.1368
rwrist 8.79262
rhand -8.29347 -29.3162
rfingers 7.12502
rthumb 17.6264 -58.5372
lclavicle 1.29707e-014 -5.96354e-015
lhumerus -29.4773 -7.53956 85.3461
lradius 25.8886
lwrist -12.3718
lhand -13.4097 -27.2831
lfingers 7.12502
lthumb 12.6983 2.3108
rfemur 5.0954 -2.89903 20.1209
rtibia 11.5253
rfoot -21.69 2.08691
rtoes 19.7153
lfemur 5.06143 3.323 -10.1708
ltibia 15.1797
lfoot -18.4944 8.42558
ltoes -22.3706
299
root -29.8107 16.8536 2.1356 5.75514 84.7993 6.05913
lowerback 5.41991 1.22361 -5.15475
upperback 2.0745 1.40135 -0.704456
thorax -1.00182 0.706621 2.07677
lowerneck -21.0194 -0.228175 1.87375
upperneck 25.3582 -1.10433 1.25831
head 11.8043 -0.0473534 -0.00451972
rclavicle -4.77083e-015 -1.59028e-015
rhumerus -36.8603 1.76853 -87.5718
rradius 29.0101
rwrist 8.84407
rhand -8.49893 -29.1071
rfingers 7.12502
rthumb 17.4287 -58.3458
lclavicle -4.77083e-015 -1.59028e-015
lhumerus -29.9044 -8.19577 85.6007
lradius 26.4243
lwrist -12.3596
lhand -15.7818 -26.3458
lfingers 7.12502
lthumb 10.4106 3.37642
rfemur 5.1968 -2.90012 20.4228
rtibia 11.6122
rfoot -21.9108 2.42578
rtoes 20.7404
lfemur 3.88632 3.40377 -9.99605
ltibia 17.5921
lfoot -18.7608 8.51734
ltoes -21.4398
300
root -29.7913 16.8331 2.18744 4.19369 84.8286 4.56277
lowerback 5.62708 1.14285 -4.78464
upperback 2.08571 1.30121 -0.674563
thorax -1.09188 0.65932 1.9034
lowerneck -20.9134 -0.282441 1.92707
upperneck 25.4748 -1.20457 1.29855
head 11.8286 -0.0778139 -0.0137964
rclavicle -1.09332e-015 -1.15295e-014
rhumerus -36.8967 1.75148 -87.5168
rradius 28.9055
rwrist 8.80492
rhand -8.62159 -29.1858
rfingers 7.12502
rthumb 17.3107 -58.4348
lclavicle -1.09332e-015 -1.15295e-014
lhumerus -30.0108 -7.98439 85.2974
lradius 27.0315
lwrist -10.7955
lhand -13.37 -27.0134
lfingers 7.12502
lthumb 12.7365 2.57814
rfemur 5.34521 -3.15214 20.6966
rtibia 11.7135
rfoot -21.9861 2.97159
rtoes 22.2331
lfemur 2.82338 3.31941 -9.81801
ltibia 19.877
lfoot -19.1072 8.8729
ltoes -19.8436
301
root -29.7668 16.8109 2.23658 -0.990031 84.6599 -0.500959
lowerback 5.77341 1.1272 -4.11552
upperback 2.19796 1.31414 -0.526613
thorax -1.04882 0.664813 1.67896
lowerneck -20.6688 -0.350103 1.77104
upperneck 25.2897 -1.31095 1.55157
head 11.7123 -0.111334 0.0893692
rclavicle 7.00716e-015 -7.55382e-015
rhumerus -36.8187 1.77086 -87.4191
rradius 28.8438
rwrist 8.83861
rhand -8.44862 -29.5379
rfingers 7.12502
rthumb 17.4771 -58.7723
lclavicle 7.00716e-015 -7.55382e-015
lhumerus -30.1233 -8.19014 85.4017
lradius 27.1842
lwrist -11.3909
lhand -14.7554 -27.1751
lfingers 7.12502
lthumb 11.4006 2.49493
rfemur 5.55717 -3.49279 21.2947
rtibia 11.8294
rfoot -22.0799 3.64711
rtoes 23.1806
lfemur 1.88379 3.6194 -9.16174
ltibia 22.1507
lfoot -19.3846 9.1642
ltoes -19.1223
